<svg xmlns="http://www.w3.org/2000/svg" version="1.1" xmlns:xlink="http://www.w3.org/1999/xlink" xmlns:svgjs="http://svgjs.dev/svgjs" width="1500" height="1500" viewBox="0 0 1500 1500"><rect width="1500" height="1500" fill="#0718c4"></rect><g transform="matrix(0.6666666666666666,0,0,0.6666666666666666,249.50000000000006,249.50000000000006)"><svg viewBox="0 0 280 280" data-background-color="#0718c4" preserveAspectRatio="xMidYMid meet" height="1500" width="1500" xmlns="http://www.w3.org/2000/svg" xmlns:xlink="http://www.w3.org/1999/xlink"><g id="tight-bounds" transform="matrix(1,0,0,1,0.13999999999998636,0.13999999999998636)"><svg viewBox="0 0 279.72 279.72" height="279.72" width="279.72"><g><svg viewBox="0 0 279.72 279.72" height="279.72" width="279.72"><g><svg viewBox="0 0 279.72 279.72" height="279.72" width="279.72"><g id="textblocktransform"><svg viewBox="0 0 279.72 279.72" height="279.72" width="279.72" id="textblock"><g><svg viewBox="0 0 279.72 279.72" height="279.72" width="279.72"><g transform="matrix(1,0,0,1,57.446704652707865,57.446704652707865)"><svg viewBox="0 0 164.8265906945843 164.8265906945843" height="164.8265906945843" width="164.8265906945843"><g><circle r="82" cx="82.41329534729215" cy="82.41329534729215" fill="#ffffff" data-fill-palette-color="accent"></circle><svg xmlns="http://www.w3.org/2000/svg" data-name="Layer 1" viewBox="2.1498339423398907 2.1598199362632235 95.70020573702796 95.68022666575847" x="24.72398860418764" y="24.723988604187646" height="115.378613486209" width="115.378613486209" class="icon-xg-0" data-fill-palette-color="quaternary" id="xg-0"><path d="M6.71 58.47l7.17 1.26a37.15 37.15 0 0 0 3.7 8.93l-4.18 6A5.51 5.51 0 0 0 14 81.68l4.3 4.3a5.51 5.51 0 0 0 7.06 0.61l6-4.18a37.14 37.14 0 0 0 8.93 3.7l1.26 7.17A5.51 5.51 0 0 0 47 97.84H53a5.51 5.51 0 0 0 5.43-4.56l1.26-7.17a37.2 37.2 0 0 0 8.93-3.71l6 4.18A5.51 5.51 0 0 0 81.68 86l4.3-4.3a5.51 5.51 0 0 0 0.61-7.06l-4.18-6a37.1 37.1 0 0 0 3.7-8.93l7.17-1.26A5.51 5.51 0 0 0 97.85 53V47a5.51 5.51 0 0 0-4.56-5.43l-7.17-1.26a37.13 37.13 0 0 0-3.7-8.93l4.18-6A5.51 5.51 0 0 0 86 18.32L81.68 14a5.51 5.51 0 0 0-7.06-0.62l-6 4.18a37.12 37.12 0 0 0-8.93-3.71L58.47 6.71A5.51 5.51 0 0 0 53 2.16H47a5.51 5.51 0 0 0-5.43 4.56l-1.26 7.17a37.09 37.09 0 0 0-8.93 3.71l-6-4.18a5.51 5.51 0 0 0-7.06 0.62L14 18.32a5.51 5.51 0 0 0-0.61 7.06l4.18 6a37.17 37.17 0 0 0-3.7 8.93L6.71 41.53A5.51 5.51 0 0 0 2.15 47V53A5.51 5.51 0 0 0 6.71 58.47Zm24.65-27.1a26.35 26.35 0 1 1 0 37.28A26.19 26.19 0 0 1 31.36 31.37ZM48.41 42.62L42.87 32.57A18.84 18.84 0 0 1 67.43 57.14l-10-5.54a7.53 7.53 0 0 0-9-9Zm1.59 5a2.41 2.41 0 0 1 1.71 4.12 2.47 2.47 0 0 1-3.42 0A2.42 2.42 0 0 1 50 47.59ZM36.68 63.32a18.86 18.86 0 0 1-4.11-20.45l10 5.54a7.55 7.55 0 0 0 9 9l5.54 10A18.87 18.87 0 0 1 36.68 63.32Z" fill="#0718c4" data-fill-palette-color="quaternary"></path></svg></g></svg></g><g><path d="M13.372 85.598c3.095-1.462 6.759-1.431 10.992 0.092 4.233 1.523 7.073 3.883 8.52 7.079 1.456 3.192 1.381 7.018-0.224 11.479v0l-2.629 7.304-26.43-9.511 2.911-8.089c1.48-4.114 3.767-6.898 6.86-8.354zM28.481 107.525l1.343-3.732c1.317-3.66 1.41-6.736 0.279-9.228-1.137-2.494-3.451-4.369-6.941-5.625-3.49-1.256-6.418-1.335-8.784-0.237-2.372 1.096-4.173 3.351-5.402 6.766v0l-1.605 4.46z" fill="#ffffff" data-fill-palette-color="primary"></path><path d="M150.914 16.164l-0.25-16.117 3.053-0.047 0.435 28.086-3.735 0.058-15.709-23.329-0.151 0.002c0.239 2.862 0.375 5.394 0.41 7.597v0l0.247 15.966-3.002 0.046-0.436-28.085 3.685-0.058 15.668 23.24 0.15-0.003c-0.271-3.685-0.393-6.137-0.365-7.356z" fill="#ffffff" data-fill-palette-color="primary"></path><path d="M268.06 95.358l-9.312-0.069 3.154 8.502 7.028-6.088c0.97-0.831 2.087-1.71 3.35-2.635v0c-1.181 0.167-2.587 0.264-4.22 0.29zM276.119 95.165l-22.601 20.156-1.17-3.154 7.142-6.388-3.912-10.546-9.566-0.146-1.149-3.098 30.299 0.596z" fill="#ffffff" data-fill-palette-color="primary"></path><path d="M21.241 192.645v0c-1.829 0.588-3.466 0.386-4.91-0.606-1.444-0.992-2.547-2.673-3.309-5.044-0.762-2.371-1.04-4.318-0.833-5.84v0l2.333-0.749c-0.177 2.118 0.051 4.164 0.687 6.14v0c0.51 1.587 1.198 2.699 2.063 3.334 0.863 0.63 1.853 0.765 2.969 0.407v0c0.714-0.229 1.251-0.56 1.611-0.992 0.358-0.439 0.629-1.064 0.811-1.875 0.176-0.809 0.287-1.973 0.333-3.493v0c0.063-2.144 0.436-3.786 1.117-4.927 0.675-1.138 1.796-1.959 3.364-2.463 1.568-0.504 3.016-0.308 4.345 0.587v0c1.341 0.912 2.335 2.375 2.983 4.389 0.647 2.014 0.87 4.01 0.669 5.988v0l-2.356-0.076c0.176-1.948 0.004-3.729-0.514-5.342v0c-0.412-1.281-1.011-2.193-1.797-2.734-0.786-0.542-1.66-0.658-2.623-0.349v0c-0.739 0.238-1.287 0.558-1.642 0.96-0.358 0.396-0.64 0.983-0.848 1.76v0c-0.182 0.79-0.289 1.89-0.322 3.3v0c-0.075 2.436-0.434 4.197-1.076 5.282v0c-0.615 1.105-1.634 1.886-3.055 2.343z" fill="#ffffff" data-fill-palette-color="primary"></path><path d="M32.756 197.053l-8.686 4.113c-0.89 0.421-1.476 0.951-1.759 1.588-0.28 0.644-0.25 1.326 0.09 2.046 0.344 0.726 0.76 1.37 1.248 1.932v0l-1.706 0.808c-0.218-0.178-0.482-0.494-0.793-0.947-0.32-0.456-0.563-0.86-0.729-1.211v0c-1.349-2.85-0.52-4.987 2.487-6.411v0l8.787-4.16-1.001-2.114 1.071-0.508 1.936 1.673 3.605-0.552 0.615 1.298-3.431 1.625 2.028 4.284-1.733 0.821z" fill="#ffffff" data-fill-palette-color="primary"></path><path d="M29.364 211.622v0c-0.751 0.466-1.185 1.055-1.303 1.766-0.118 0.711 0.079 1.48 0.591 2.305v0c0.823 1.325 1.822 2.135 2.997 2.43 1.176 0.295 2.412 0.039 3.709-0.766v0l1.255-0.779-1.383-2.037c-1.106-1.63-2.117-2.674-3.031-3.131-0.923-0.459-1.868-0.389-2.835 0.212zM40.571 217.053l-9.471 5.879-0.969-1.562 1.706-1.65-0.058-0.094c-1.295-0.157-2.31-0.485-3.045-0.982-0.737-0.488-1.426-1.25-2.069-2.286v0c-0.862-1.388-1.174-2.691-0.937-3.909 0.231-1.215 0.998-2.227 2.3-3.036v0c2.799-1.737 5.656-0.41 8.571 3.982v0l1.544 2.316 0.853-0.529c1.109-0.689 1.773-1.428 1.992-2.218 0.222-0.784-0.005-1.722-0.683-2.815-0.678-1.092-1.825-2.153-3.441-3.182v0l1.207-1.636c1.704 0.968 3.073 2.285 4.107 3.951 1.038 1.672 1.433 3.133 1.184 4.383-0.251 1.259-1.181 2.388-2.791 3.388z" fill="#ffffff" data-fill-palette-color="primary"></path><path d="M48.531 222.01c1.981-0.201 3.693 0.54 5.137 2.221 1.448 1.687 1.997 3.457 1.647 5.31-0.346 1.859-1.537 3.662-3.574 5.411-2.037 1.749-4.007 2.65-5.911 2.705-1.903 0.054-3.57-0.751-5-2.417-1.426-1.661-1.909-3.452-1.45-5.374v0l-0.118-0.137-1.939 0.964-1.151-1.342 17.594-15.104 1.616 1.882-4.275 3.67c-1.006 0.864-1.89 1.57-2.654 2.119v0zM45.737 235.236c1.322-0.146 2.782-0.906 4.382-2.28 1.605-1.378 2.56-2.687 2.863-3.927 0.299-1.245-0.081-2.485-1.141-3.719-1.06-1.234-2.195-1.822-3.405-1.762-1.211 0.069-2.691 0.854-4.439 2.354-1.742 1.496-2.741 2.856-2.995 4.081-0.259 1.219 0.163 2.472 1.266 3.757v0c0.986 1.148 2.142 1.647 3.469 1.496z" fill="#ffffff" data-fill-palette-color="primary"></path><path d="M65.722 232.254c-0.392 0.021-0.749-0.116-1.069-0.411-0.315-0.29-0.476-0.629-0.483-1.017-0.002-0.384 0.181-0.775 0.549-1.174 0.367-0.399 0.74-0.611 1.118-0.636 0.383-0.021 0.732 0.114 1.047 0.404 0.32 0.295 0.486 0.639 0.498 1.032 0.011 0.393-0.164 0.786-0.527 1.18-0.363 0.394-0.74 0.602-1.133 0.622zM61.86 233.053l1.825 1.68-11.061 12.013-1.825-1.68z" fill="#ffffff" data-fill-palette-color="primary"></path><path d="M72.988 233.426l1.945 1.54-14.402 18.175-1.944-1.541z" fill="#ffffff" data-fill-palette-color="primary"></path><path d="M79.692 242.618c-0.385 0.08-0.758-0.002-1.118-0.245-0.355-0.239-0.566-0.55-0.631-0.933-0.059-0.379 0.062-0.794 0.365-1.243 0.303-0.45 0.639-0.716 1.01-0.798 0.375-0.078 0.741 0.003 1.096 0.242 0.361 0.243 0.577 0.558 0.647 0.945 0.071 0.387-0.044 0.802-0.343 1.246-0.299 0.444-0.641 0.706-1.026 0.786zM75.995 243.991l2.058 1.385-9.122 13.544-2.057-1.385z" fill="#ffffff" data-fill-palette-color="primary"></path><path d="M84.931 251.408l-4.528 8.478c-0.464 0.868-0.619 1.643-0.467 2.323 0.158 0.684 0.589 1.214 1.291 1.59 0.709 0.379 1.426 0.648 2.153 0.808v0l-0.889 1.665c-0.281-0.014-0.681-0.11-1.201-0.288-0.528-0.176-0.964-0.355-1.307-0.539v0c-2.781-1.486-3.388-3.696-1.82-6.631v0l4.58-8.574-2.064-1.103 0.558-1.045 2.552 0.19 2.567-2.591 1.267 0.677-1.788 3.348 4.181 2.234-0.904 1.692z" fill="#ffffff" data-fill-palette-color="primary"></path><path d="M85.252 275.601v0c-0.693-0.268-1.36-0.614-1.999-1.041v0l0.716-1.855c0.494 0.32 1.044 0.597 1.65 0.831v0c1.587 0.612 3.064 0.16 4.431-1.358v0l1.695-1.854-0.247-17.685 2.474 0.955-0.017 9.972c-0.04 2.353-0.139 3.958-0.297 4.816v0l0.112 0.043c0.334-0.474 0.881-1.167 1.642-2.079 0.761-0.912 3.398-3.96 7.91-9.143v0l2.474 0.954-13.256 14.821c-1.293 1.453-2.51 2.376-3.651 2.767-1.15 0.396-2.362 0.348-3.637-0.144z" fill="#ffffff" data-fill-palette-color="primary"></path><path d="M118.327 273.214v0c-0.138 0.873 0.025 1.586 0.487 2.14 0.462 0.554 1.172 0.906 2.131 1.058v0c1.541 0.243 2.807 0.015 3.798-0.683 0.991-0.698 1.605-1.801 1.843-3.308v0l0.229-1.459-2.446-0.283c-1.957-0.227-3.407-0.144-4.35 0.25-0.951 0.399-1.515 1.161-1.692 2.285zM129.76 268.275l-1.735 11.011-1.815-0.286-0.135-2.37-0.109-0.017c-0.965 0.878-1.876 1.433-2.733 1.664-0.851 0.239-1.878 0.263-3.082 0.074v0c-1.614-0.254-2.805-0.869-3.572-1.844-0.769-0.968-1.034-2.21-0.796-3.725v0c0.513-3.254 3.384-4.55 8.613-3.888v0l2.762 0.343 0.157-0.992c0.203-1.29 0.077-2.275-0.378-2.957-0.449-0.681-1.308-1.121-2.578-1.321-1.27-0.2-2.822-0.024-4.658 0.527v0l-0.45-1.982c1.846-0.658 3.737-0.834 5.675-0.53 1.944 0.306 3.308 0.962 4.092 1.967 0.789 1.012 1.037 2.454 0.742 4.326z" fill="#ffffff" data-fill-palette-color="primary"></path><path d="M149.889 269.075l-0.056 10.645-2.481-0.013 0.056-10.565c0.007-1.346-0.292-2.345-0.898-2.997-0.606-0.646-1.548-0.972-2.826-0.98v0c-1.714-0.009-2.968 0.443-3.764 1.356-0.802 0.92-1.208 2.444-1.219 4.573v0l-0.046 8.567-2.48-0.014 0.087-16.329 2.018 0.011 0.38 2.241 0.121 0.001c0.513-0.794 1.229-1.413 2.149-1.856 0.913-0.444 1.935-0.663 3.066-0.657v0c1.988 0.011 3.469 0.501 4.441 1.47 0.979 0.963 1.463 2.478 1.452 4.547z" fill="#ffffff" data-fill-palette-color="primary"></path><path d="M158.759 265.5c-0.588 1.228-0.717 2.866-0.386 4.915 0.331 2.049 0.961 3.537 1.891 4.466 0.931 0.935 2.127 1.284 3.587 1.048v0c1.666-0.269 2.801-0.92 3.408-1.954 0.606-1.034 0.746-2.559 0.421-4.575v0l-0.082-0.505c-0.372-2.3-1.019-3.874-1.943-4.722-0.917-0.849-2.212-1.138-3.884-0.868v0c-1.428 0.231-2.432 0.962-3.012 2.195zM168.543 274.744c-0.872 1.823-2.395 2.91-4.57 3.261-2.175 0.351-3.966-0.099-5.376-1.349v0c-1.412-1.271-2.333-3.231-2.761-5.882-0.427-2.644-0.171-4.798 0.768-6.462 0.938-1.664 2.485-2.67 4.639-3.018 2.148-0.347 3.928 0.176 5.34 1.569v0l0.198-0.032-0.296-1.142-0.231-1.112-1.06-6.564 2.429-0.392 3.698 22.892-1.973 0.319-0.676-2.109z" fill="#ffffff" data-fill-palette-color="primary"></path><path d="M199.454 260.182v0c0.756 1.766 0.708 3.415-0.144 4.945-0.852 1.53-2.423 2.786-4.712 3.766-2.289 0.98-4.202 1.439-5.737 1.375v0l-0.965-2.253c2.125-0.021 4.141-0.441 6.049-1.257v0c1.532-0.656 2.575-1.445 3.128-2.366 0.546-0.919 0.589-1.916 0.127-2.994v0c-0.295-0.689-0.675-1.193-1.139-1.511-0.47-0.316-1.118-0.526-1.942-0.633-0.822-0.1-1.992-0.101-3.509-0.005v0c-2.141 0.137-3.81-0.08-5.009-0.651-1.196-0.566-2.119-1.605-2.767-3.12-0.648-1.514-0.589-2.974 0.178-4.38v0c0.783-1.42 2.147-2.547 4.091-3.38 1.945-0.833 3.911-1.241 5.899-1.226v0l0.144 2.353c-1.956 0.007-3.713 0.344-5.269 1.011v0c-1.237 0.53-2.089 1.211-2.555 2.044-0.466 0.833-0.5 1.715-0.103 2.644v0c0.306 0.714 0.676 1.229 1.11 1.546 0.428 0.319 1.039 0.546 1.832 0.68v0c0.803 0.107 1.909 0.111 3.315 0.011v0c2.433-0.153 4.219 0.039 5.36 0.578v0c1.158 0.509 2.03 1.45 2.618 2.823z" fill="#ffffff" data-fill-palette-color="primary"></path><path d="M204.821 257.236l-5.597-9.101 2.13-1.31 5.55 9.024c0.701 1.141 1.485 1.826 2.35 2.057 0.863 0.24 1.839 0.025 2.928-0.645v0c1.46-0.898 2.276-1.954 2.449-3.169 0.176-1.209-0.288-2.711-1.393-4.507v0l-4.493-7.306 2.121-1.305 8.555 13.91-1.737 1.068-1.463-1.67-0.112 0.068c-0.016 0.945-0.291 1.834-0.825 2.665-0.536 0.841-1.298 1.564-2.284 2.171v0c-1.711 1.052-3.233 1.427-4.568 1.123-1.334-0.303-2.538-1.328-3.611-3.073z" fill="#ffffff" data-fill-palette-color="primary"></path><path d="M231.084 245.621v0c-1.807 1.544-3.679 2.182-5.615 1.916v0c-1.93-0.271-3.767-1.427-5.511-3.469-1.748-2.047-2.61-4.066-2.585-6.058v0c0.038-1.996 0.982-3.783 2.829-5.362v0c0.606-0.517 1.261-0.967 1.966-1.348 0.704-0.381 1.298-0.629 1.782-0.743v0l0.789 2.099c-1.262 0.409-2.313 0.972-3.153 1.689v0c-2.53 2.161-2.422 4.85 0.326 8.068v0c1.309 1.532 2.621 2.441 3.939 2.725 1.322 0.28 2.581-0.091 3.777-1.113v0c1.028-0.878 1.899-2.014 2.612-3.406v0l1.435 1.68c-0.47 1.141-1.333 2.248-2.591 3.322z" fill="#ffffff" data-fill-palette-color="primary"></path><path d="M243.288 233.159v0c-1.593 1.764-3.366 2.639-5.319 2.626v0c-1.949-0.019-3.92-0.928-5.914-2.727-1.998-1.803-3.114-3.695-3.347-5.674v0c-0.22-1.984 0.484-3.879 2.113-5.682v0c0.534-0.591 1.125-1.122 1.774-1.591 0.649-0.469 1.206-0.792 1.671-0.968v0l1.054 1.98c-1.199 0.569-2.168 1.263-2.908 2.083v0c-2.23 2.47-1.774 5.123 1.367 7.958v0c1.496 1.35 2.915 2.081 4.257 2.192 1.347 0.107 2.548-0.424 3.602-1.592v0c0.906-1.004 1.623-2.242 2.15-3.715v0l1.64 1.481c-0.318 1.192-1.031 2.402-2.14 3.629z" fill="#ffffff" data-fill-palette-color="primary"></path><path d="M253.961 218.83v0c-1.358 1.999-3.04 3.163-5.045 3.493v0c-1.995 0.328-4.079-0.246-6.249-1.721-2.176-1.479-3.541-3.187-4.094-5.125v0c-0.542-1.955-0.218-3.807 0.971-5.557 1.189-1.75 2.678-2.738 4.466-2.963 1.783-0.229 3.582 0.273 5.399 1.507v0l1.304 0.886-6.333 9.32c1.612 1.023 3.088 1.435 4.429 1.237 1.337-0.192 2.493-1.006 3.467-2.44 0.971-1.429 1.626-3.048 1.965-4.857v0l1.819 1.236c-0.168 0.914-0.406 1.748-0.715 2.5-0.309 0.753-0.771 1.581-1.384 2.484zM242.742 217.472l4.803-7.069c-1.285-0.873-2.466-1.255-3.544-1.146-1.078 0.109-1.982 0.701-2.712 1.776-0.726 1.069-0.96 2.169-0.701 3.3 0.259 1.131 0.977 2.178 2.154 3.139z" fill="#ffffff" data-fill-palette-color="primary"></path><path d="M261.062 195.867v0c1.371 0.672 2.177 1.697 2.418 3.075 0.241 1.378-0.102 3.014-1.031 4.908-0.928 1.894-1.969 3.233-3.121 4.018v0l-2.065-1.013c1.524-1.147 2.665-2.493 3.422-4.037v0c1.182-2.411 1.024-3.983-0.473-4.717v0c-0.577-0.283-1.195-0.269-1.854 0.042-0.662 0.302-1.589 1.014-2.782 2.137-1.198 1.12-2.138 1.89-2.82 2.308v0c-1.332 0.756-2.609 0.835-3.829 0.237-1.214-0.595-1.93-1.546-2.147-2.853-0.214-1.313 0.083-2.793 0.89-4.44 0.81-1.653 1.898-3.066 3.264-4.239v0l1.428 1.673c-1.32 1.157-2.258 2.301-2.812 3.431-0.551 1.124-0.797 2.036-0.737 2.737 0.059 0.7 0.387 1.196 0.981 1.488v0c0.373 0.183 0.749 0.244 1.129 0.184 0.377-0.054 0.801-0.241 1.271-0.563 0.471-0.321 1.254-1.007 2.351-2.057v0c1.498-1.428 2.716-2.292 3.654-2.593 0.941-0.292 1.895-0.201 2.863 0.274z" fill="#ffffff" data-fill-palette-color="primary"></path><path d="M266.601 179.919v0c1.446 0.489 2.378 1.401 2.795 2.737 0.418 1.336 0.289 3.002-0.386 5.001-0.676 1.998-1.534 3.46-2.576 4.387v0l-2.179-0.737c1.363-1.334 2.32-2.816 2.872-4.446v0c0.86-2.543 0.5-4.082-1.079-4.616v0c-0.609-0.206-1.22-0.112-1.834 0.281-0.618 0.385-1.445 1.211-2.481 2.479-1.043 1.266-1.876 2.15-2.499 2.654v0c-1.224 0.922-2.479 1.165-3.766 0.73-1.281-0.433-2.114-1.284-2.498-2.552-0.382-1.274-0.279-2.78 0.309-4.518 0.59-1.744 1.486-3.286 2.688-4.625v0l1.632 1.475c-1.16 1.318-1.941 2.574-2.344 3.765-0.401 1.186-0.527 2.122-0.378 2.809 0.149 0.687 0.538 1.136 1.166 1.349v0c0.393 0.133 0.774 0.145 1.143 0.036 0.367-0.102 0.763-0.343 1.188-0.722 0.425-0.379 1.113-1.161 2.065-2.344v0c1.301-1.61 2.396-2.624 3.287-3.044 0.895-0.411 1.853-0.444 2.875-0.099z" fill="#ffffff" data-fill-palette-color="primary"></path><path d="M11.453 144.497c0-1.785 1.447-3.232 3.232-3.231 1.785 0 3.232 1.447 3.231 3.231 0 1.785-1.447 3.232-3.231 3.232-1.785 0-3.232-1.447-3.232-3.232z" fill="#ffffff" data-fill-palette-color="primary"></path><path d="M264.28 144.497c0-1.785 1.447-3.232 3.232-3.231 1.785 0 3.232 1.447 3.231 3.231 0 1.785-1.447 3.232-3.231 3.232-1.785 0-3.232-1.447-3.232-3.232z" fill="#ffffff" data-fill-palette-color="primary"></path></g></svg></g></svg></g></svg></g></svg></g><defs></defs></svg><rect width="279.72" height="279.72" fill="none" stroke="none" visibility="hidden"></rect></g></svg></g></svg>